<?xml version="1.0" encoding="UTF-8"?>
<svg id="Layer_1" data-name="Layer 1" xmlns="http://www.w3.org/2000/svg" viewBox="0 0 448 512">
  <defs>
    <style>
      .cls-1 {
        fill: #ededed;
      }
    </style>
  </defs>
  <path class="cls-1" d="m135.2,17.7l-7.2,14.3H32C14.3,32,0,46.3,0,64s14.3,32,32,32h384c17.7,0,32-14.3,32-32s-14.3-32-32-32h-96l-7.2-14.3c-5.4-10.9-16.5-17.7-28.6-17.7h-120.4c-12.1,0-23.2,6.8-28.6,17.7Zm280.8,110.3H32l21.2,339c1.6,25.3,22.6,45,47.9,45h245.8c25.3,0,46.3-19.7,47.9-45l21.2-339Z"/>
</svg>